<svg id="Front" xmlns="http://www.w3.org/2000/svg" viewBox="0 0 187.67 57.51"><defs><style>.cls-1{font-size:24px;fill:#d8ccb8;font-family:SFUIText-Regular, SF UI Text;letter-spacing:0.02em;}.cls-2{letter-spacing:0em;}.cls-3{fill:none;stroke:#d8ccb8;stroke-linecap:round;stroke-miterlimit:10;}.cls-4{fill:#2e2b27;}.cls-5{fill:#2b2823;}</style></defs><title>logo</title><text class="cls-1" transform="translate(79.46 23.4)">S<tspan class="cls-2" x="15.77" y="0">e</tspan><tspan x="29.5" y="0">xual </tspan><tspan x="0" y="24">E</tspan><tspan class="cls-2" x="14.78" y="24">v</tspan><tspan x="27.8" y="24">olution</tspan></text><line class="cls-3" x1="62.02" y1="0.5" x2="62.02" y2="56.2"/><path class="cls-4" d="M-9.87,93.1A16.11,16.11,0,0,1-29.74,82,16.1,16.1,0,0,1-18.67,62.16,16.1,16.1,0,0,1,1.2,73.23,16.1,16.1,0,0,1-9.87,93.1Zm-7.27-25.56a10.49,10.49,0,0,0-7.21,13,10.5,10.5,0,0,0,13,7.22,10.5,10.5,0,0,0,7.22-13A10.5,10.5,0,0,0-17.14,67.54Z" transform="translate(30.35 -42.51)"/><rect class="cls-4" x="-22.26" y="47" width="3.49" height="18.86" transform="translate(14.11 -45.97) rotate(-15.89)"/><rect class="cls-4" x="-28.67" y="53.53" width="15.66" height="3.49" transform="translate(14.44 -46.11) rotate(-15.87)"/><path class="cls-5" d="M-13.94,70a7.71,7.71,0,0,1,5.21,2.34,11.16,11.16,0,0,0-.94,1.38,10.48,10.48,0,0,0,0,10.13A7.51,7.51,0,0,1-12.16,85a7.56,7.56,0,0,1-2.1.3h0a7.75,7.75,0,0,1-1-.07A16.05,16.05,0,0,1-14.55,71C-14.36,70.6-14.15,70.27-13.94,70ZM8.63,65.54l3.78-6.79,1.91,6.72,3.77-1.07-3.69-13L1.45,55.13,2.52,58.9l6.91-2-3.88,7a16,16,0,0,0-8.12-1.06,19.25,19.25,0,0,1,4.93,5.86,10.79,10.79,0,0,1,2.24.92A10.51,10.51,0,0,1,8.66,83.88a10.51,10.51,0,0,1-8,5.31,18.94,18.94,0,0,1-5.82,5A16.13,16.13,0,0,0,13.55,86.6,16.11,16.11,0,0,0,8.63,65.54Z" transform="translate(30.35 -42.51)"/></svg>